<svg width="0" height="0" class="hidden">
  <symbol fill="none" xmlns="http://www.w3.org/2000/svg" viewBox="0 0 35 35" id="close">
    <path d="M8.23533 27.46L27.46 8.23534" stroke="#FCFBFA" stroke-width="1.5" stroke-linecap="round"></path>
    <path d="M8.23533 8.23531L27.46 27.4599" stroke="#FCFBFA" stroke-width="1.5" stroke-linecap="round"></path>
  </symbol>
  <symbol fill="none" xmlns="http://www.w3.org/2000/svg" viewBox="0 0 29 29" id="phone">
    <path d="M15.1577 2C21.3608 3.12836 25.8722 8.20599 27 13.8478" stroke="#CCCBCA" stroke-width="2"></path>
    <path d="M15.1577 7.26611C18.4473 7.81462 21.2982 10.7766 21.7368 13.8482" stroke="#CCCBCA" stroke-width="2"></path>
    <path d="M15.1577 12.5327C15.8156 12.6424 16.3858 13.2348 16.4736 13.8491" stroke="#CCCBCA" stroke-width="2"></path>
    <path d="M8.77698 15.0131C9.84294 17.0519 12.123 19.1559 14.1243 20.5705C14.8663 21.0949 15.8662 20.9669 16.5129 20.3287L17.4412 19.4124C17.6838 19.1729 18.1807 19.041 18.6491 18.9737C19.1697 18.8989 19.6768 19.1197 20.0511 19.4891L23.0119 22.4114C23.3746 22.7694 23.8996 23.2875 23.6424 24.1093C23.5779 24.3153 23.44 24.4881 23.2864 24.6397L21.9991 25.9103C20.4798 27.4098 19.9221 28.296 18.4541 27.9096C10.8577 25.9103 5.7934 20.4121 2.75484 14.9139C2.05853 13.6537 1.7428 10.9155 2.24841 9.91555C2.48309 9.4514 4.02869 7.69416 5.05923 6.64509C5.20926 6.49237 5.3821 6.35547 5.59128 6.30992C6.30726 6.15403 7.01705 6.62464 7.31268 6.91642L10.3512 9.91543C11.1615 10.7152 10.6889 11.5815 10.3512 11.9148L9.17273 13.0779C8.65067 13.5932 8.43712 14.3631 8.77698 15.0131Z" stroke="#CCCBCA" stroke-width="2"></path>
  </symbol>
  <symbol fill="none" xmlns="http://www.w3.org/2000/svg" viewBox="0 0 27 20" id="mail">
    <rect x="1.5" y="1" width="24" height="18" rx="2" stroke="#CCCBCA" stroke-width="2"></rect>
    <path d="M1.5 2L12.2195 10.933C12.9612 11.5511 14.0385 11.5511 14.7802 10.933L25.5 2" stroke="#CCCBCA" stroke-width="2"></path>
  </symbol>
</svg>