<svg width="40" height="40" viewBox="0 0 40 40" fill="none" xmlns="http://www.w3.org/2000/svg">
<path fill-rule="evenodd" clip-rule="evenodd" d="M2.17993 0.135022C1.4138 0.357806 0.361705 1.45888 0.144099 2.26607C0.0209233 2.72265 -0.021361 7.15664 0.00989264 16.3345L0.0555196 29.7361L0.452123 30.3731C0.67023 30.7235 1.15358 31.2116 1.52594 31.4578L2.20333 31.9055L9.00492 31.9542L15.8065 32.003L15.3113 33.9767L14.8161 35.9505L13.8175 36.041C12.1472 36.1921 10.9893 37.2281 10.7381 38.7961C10.5333 40.0746 9.95139 39.9992 20.0278 39.9992C30.1041 39.9992 29.5222 40.0746 29.3174 38.7961C29.0662 37.2281 27.9084 36.1921 26.238 36.041L25.2394 35.9505L24.7442 33.9767L24.249 32.003L31.0506 31.9542L37.8522 31.9055L38.5296 31.4578C38.9019 31.2116 39.3853 30.7235 39.6034 30.3731L40 29.7361V15.9564V2.17662L39.5516 1.5001C39.3051 1.12812 38.8162 0.645339 38.4652 0.427562L37.8273 0.0315569L20.2785 0.00335438C9.50231 -0.0140011 2.51754 0.0368971 2.17993 0.135022ZM38.1166 1.91212L38.6629 2.45765L38.7081 14.2195L38.753 25.9813H20.0278H1.30249L1.34745 14.2297L1.39257 2.47801L1.8104 2.02927C2.04021 1.78246 2.37865 1.51778 2.5625 1.44119C2.74634 1.36459 10.6983 1.31653 20.2335 1.33422L37.5702 1.36659L38.1166 1.91212ZM13.0918 4.64894C9.4149 5.75452 6.3126 6.73543 6.19761 6.82855C5.88257 7.08388 5.94658 7.59553 6.32296 7.83016C6.64602 8.03175 6.65722 8.21916 6.65672 13.4638L6.65639 18.8889L6.02998 19.2227L5.40373 19.5566L5.35711 21.8699C5.32568 23.4334 5.37282 24.2583 5.50284 24.4148C5.77594 24.7432 8.87556 24.7432 9.14866 24.4148C9.27868 24.2583 9.32582 23.4334 9.29439 21.8699L9.24776 19.5566L8.62152 19.2227L7.99511 18.8889L7.99478 13.6739C7.99444 10.8058 8.0384 8.45896 8.09222 8.45896C8.1462 8.45896 8.74787 8.62067 9.42927 8.81842L10.6684 9.17788V12.386C10.6684 14.7518 10.7232 15.6378 10.8773 15.7611C10.9923 15.8531 13.1035 16.5448 15.5689 17.2982L20.0515 18.6681L24.5104 17.3014C26.9629 16.5496 29.0634 15.8579 29.1782 15.7643C29.3321 15.6388 29.3871 14.751 29.3871 12.3898V9.18589L31.5841 8.53039C33.8706 7.84819 34.3184 7.55999 33.9645 6.99877C33.8379 6.79785 31.6735 6.07192 27.0294 4.67247C23.3164 3.55371 20.1656 2.63838 20.0278 2.63838C19.8899 2.63855 16.7687 3.5432 13.0918 4.64894ZM25.5013 5.62852C28.374 6.48512 30.7242 7.2329 30.7242 7.29031C30.7242 7.34771 28.3175 8.11436 25.376 8.99398L20.0278 10.5934L14.6795 8.99398C11.738 8.11436 9.33133 7.34771 9.33133 7.29031C9.33133 7.16031 19.8819 3.96657 20.1113 4.02715C20.2032 4.05151 22.6288 4.7721 25.5013 5.62852ZM16.3091 10.8872L20.0278 11.9968L23.7464 10.8872C25.7918 10.2769 27.5987 9.73809 27.7619 9.68987C28.0387 9.60776 28.0556 9.77865 28.0126 12.2209L27.9665 14.8401L24.0005 16.0573L20.0346 17.2747L18.1509 16.6945C17.115 16.3752 15.3085 15.8163 14.1364 15.4522L12.0054 14.7902V12.1974C12.0054 9.80635 12.0282 9.61143 12.2979 9.6912C12.4589 9.73876 14.2637 10.2769 16.3091 10.8872ZM7.72987 20.2418C7.94364 20.3237 7.99428 20.6278 7.99428 21.8272V23.3112H7.32575H6.65722V21.8232C6.65722 20.354 6.71706 20.1911 7.27026 20.1537C7.37773 20.1465 7.58447 20.1861 7.72987 20.2418ZM30.7242 23.9787V24.6463H31.3927H32.0612V23.9787V23.3112H31.3927H30.7242V23.9787ZM33.3983 23.9787V24.6463H34.0668H34.7354V23.9787V23.3112H34.0668H33.3983V23.9787ZM36.0724 23.9787V24.6463H36.7409H37.4095V23.9787V23.3112H36.7409H36.0724V23.9787ZM38.7159 28.4061C38.6548 29.3651 38.5819 29.5602 38.1082 30.0331L37.5702 30.5705H20.0278H2.48528L1.94728 30.0331C1.47363 29.5602 1.40076 29.3651 1.33959 28.4061L1.27007 27.3163H20.0278H38.7855L38.7159 28.4061ZM23.3299 33.9915L23.8323 35.9941H20.0278H16.2232L16.7256 33.9915L17.228 31.989H20.0278H22.8275L23.3299 33.9915ZM27.3707 37.9027C27.6525 38.1722 27.8829 38.4539 27.8829 38.5285C27.8829 38.603 24.3481 38.6641 20.0278 38.6641C15.7074 38.6641 12.1726 38.603 12.1726 38.5285C12.1726 38.3507 13.0209 37.5642 13.3425 37.4437C13.4804 37.392 16.5778 37.364 20.2258 37.3812L26.8586 37.4125L27.3707 37.9027Z" fill="#2D5BD0"/>
</svg>
