<svg width="45" height="40" viewBox="0 0 45 40" fill="none" xmlns="http://www.w3.org/2000/svg">
<path fill-rule="evenodd" clip-rule="evenodd" d="M16.357 0.271065C14.2081 0.940941 12.3615 2.83812 11.7271 5.02763C11.3815 6.21976 11.5372 6.88616 12.2111 7.10082C12.8336 7.29887 13.3545 6.8794 13.5876 5.99254C13.9113 4.76041 14.6681 3.58257 15.5461 2.94458C16.6702 2.12767 16.9177 2.17887 16.7539 3.19421C16.4394 5.14607 15.4653 6.44119 13.6016 7.38485C13.0057 7.68665 12.0489 8.28716 11.4755 8.71938C10.3791 9.54596 10.1127 9.57784 10.1096 8.88265C10.1042 7.63854 8.00487 4.69163 7.1241 4.69163C6.54553 4.69163 5.38877 5.99544 4.74472 7.37345C4.30501 8.3144 4.23837 8.70431 4.24607 10.2949C4.25763 12.6917 4.66999 13.6761 5.66226 13.6761C6.56787 13.6761 6.7936 13.2584 6.4943 12.1356C6.14627 10.8306 6.2079 9.17189 6.63952 8.2178C6.84387 7.76625 7.09136 7.39663 7.18939 7.39663C7.54879 7.39663 8.18552 9.29787 8.18552 10.3712C8.18552 11.2511 8.03876 11.7245 7.34906 13.069C6.60947 14.5108 5.97004 15.9962 5.59717 17.1385C5.48758 17.4745 5.40861 17.444 4.76032 16.8133C3.99338 16.0675 2.49225 15.2452 1.52424 15.0408C1.08665 14.9484 0.807382 15.0147 0.464938 15.2929C0.0252306 15.6504 0 15.7841 0 17.7649C0 19.6967 0.0437203 19.9455 0.563549 20.9754C1.1816 22.2 2.75862 23.8199 3.33238 23.8199C3.77748 23.8199 4.33351 23.2362 4.33351 22.769C4.33351 22.5798 3.90209 21.9513 3.37475 21.3726C2.72992 20.6649 2.31987 19.9958 2.12284 19.33C1.48418 17.1723 1.89346 16.9018 3.44197 18.4582C4.57311 19.5953 4.81694 20.253 5.01493 22.7021C5.08119 23.522 5.24451 24.6631 5.37779 25.2381L5.61989 26.2834L4.92884 26.0921C4.03575 25.8446 1.697 25.9963 0.959151 26.3495C0.187593 26.7187 0.112479 27.5528 0.729186 28.9041C1.63345 30.8856 3.29597 32.2558 5.47525 32.816C7.18651 33.2557 7.77779 32.9588 7.61446 31.7417C7.5536 31.2882 7.3766 31.1812 6.16399 30.8643C4.70754 30.4837 3.85991 29.9504 3.15095 28.9687C2.62264 28.2372 2.6082 28.1728 2.94313 28.0484C3.39054 27.8824 4.91883 28.1568 5.63087 28.5309C6.22158 28.8412 7.05303 29.6994 7.89894 30.8722C8.20556 31.2973 8.95458 32.1697 9.5632 32.8108L10.6701 33.9764L9.67683 34.3304C8.44534 34.7692 6.25952 36.8497 6.25952 37.5832C6.25952 38.191 6.87045 38.7504 8.20267 39.3621C10.1655 40.2636 12.8461 40.1606 14.6303 39.1152C15.4288 38.6474 15.6889 37.8699 15.2206 37.3507C14.7715 36.8528 14.4845 36.858 13.4011 37.3842C12.9191 37.6183 12.0343 37.8455 11.4347 37.889C10.3789 37.9655 8.95593 37.6618 8.95593 37.3598C8.95593 36.8281 11.1608 35.7992 12.3002 35.7992C12.6544 35.7992 13.9753 36.1391 15.2355 36.5545C18.9737 37.7866 20.3194 37.7924 20.3194 36.5763C20.3194 35.9569 19.7327 35.4128 19.0651 35.4128C18.3096 35.4128 16.367 34.819 14.9876 34.1665C11.4956 32.5144 8.99522 29.671 7.67379 25.8486C7.18843 24.4449 7.13932 24.0545 7.13932 21.5979C7.13932 19.1414 7.18843 18.7509 7.67379 17.3472C7.96769 16.4971 8.56668 15.2031 9.00485 14.4716C10.4673 12.0303 11.4825 11.1214 15.6128 8.55592C16.8909 7.762 18.0758 6.22247 18.4927 4.81393C19.0703 2.86285 18.7306 0.238605 17.8712 0.0131232C17.6663 -0.0405905 16.9849 0.0755318 16.357 0.271065ZM26.3765 0.72454C26.018 1.58531 26.0186 3.59455 26.3776 4.79152C26.9797 6.79863 28.1455 7.99502 31.1947 9.7355C32.7176 10.6048 34.8644 12.7726 35.8626 14.449C36.3054 15.1929 36.9082 16.4971 37.2022 17.3472C37.6875 18.7509 37.7366 19.1414 37.7366 21.5979C37.7366 24.0545 37.6875 24.4449 37.2022 25.8486C35.4847 30.8166 31.0892 34.6529 26.3454 35.3241C25.8383 35.396 25.2284 35.5776 24.9899 35.7279C24.4054 36.0966 24.3971 37.0524 24.9755 37.3631C25.54 37.666 27.5113 37.3076 29.9958 36.4501C31.0332 36.0921 32.1828 35.7992 32.5507 35.7992C33.7068 35.7992 35.92 36.8219 35.92 37.3559C35.92 37.6176 34.7245 37.9246 33.7246 37.9199C33.129 37.9172 32.287 37.7273 31.5865 37.4379C30.1915 36.8613 30.101 36.8567 29.6674 37.3372C28.8747 38.2161 29.8531 39.206 32.0807 39.7787C33.6354 40.178 35.207 40.0356 36.6733 39.3621C38.0055 38.7504 38.6164 38.191 38.6164 37.5832C38.6164 36.8497 36.4306 34.7692 35.1991 34.3304L34.2059 33.9764L35.3127 32.8108C35.9214 32.1697 36.6704 31.2973 36.977 30.8722C37.8229 29.6994 38.6544 28.8412 39.2451 28.5309C39.9571 28.1568 41.4854 27.8824 41.9328 28.0484C42.2677 28.1728 42.2533 28.2372 41.725 28.9687C41.0207 29.944 40.1692 30.4835 38.7476 30.855C37.3089 31.2308 37.2682 31.2637 37.2682 32.047C37.2682 33.025 37.8173 33.2229 39.4007 32.816C41.58 32.2558 43.2425 30.8856 44.1468 28.9041C44.7635 27.5528 44.6883 26.7187 43.9168 26.3495C43.1789 25.9963 40.8402 25.8446 39.9471 26.0921L39.256 26.2834L39.4981 25.2381C39.6314 24.6631 39.7948 23.522 39.861 22.7021C40.059 20.253 40.3028 19.5953 41.434 18.4582C41.9892 17.9004 42.5902 17.4438 42.7697 17.4438C43.051 17.4438 43.0778 17.5806 42.9644 18.4379C42.7964 19.7083 42.2662 20.7439 41.3049 21.6798C40.1923 22.763 40.3128 23.8199 41.549 23.8199C41.9384 23.8199 42.3432 23.5693 42.9703 22.94C44.5379 21.3676 45.2371 19.1638 44.9287 16.7676C44.7481 15.3629 44.2744 14.8429 43.3594 15.0445C42.2483 15.2893 41.1299 15.8813 40.2618 16.6839C39.4949 17.3932 39.378 17.4457 39.2749 17.1279C38.9284 16.059 38.6534 15.4195 37.7181 13.5065C36.8591 11.75 36.6904 11.2323 36.6904 10.3544C36.6904 9.29709 37.3304 7.39663 37.6865 7.39663C37.7846 7.39663 38.0321 7.76625 38.2364 8.2178C38.668 9.17189 38.7297 10.8306 38.3816 12.1356C38.1018 13.1853 38.3025 13.6456 39.0808 13.7383C39.8254 13.8272 40.0742 13.5356 40.4536 12.1292C41.089 9.77434 40.5037 7.26467 38.9049 5.4896C38.467 5.00328 38.0167 4.69163 37.7518 4.69163C36.8711 4.69163 34.7717 7.63854 34.7663 8.88265C34.7633 9.57784 34.4969 9.54596 33.4004 8.71938C32.827 8.28716 31.8702 7.68665 31.2743 7.38485C29.4107 6.44119 28.4365 5.14607 28.122 3.19421C27.9583 2.17887 28.2058 2.12767 29.3298 2.94458C30.2079 3.58257 30.9646 4.76041 31.2884 5.99254C31.5214 6.8794 32.0424 7.29887 32.6649 7.10082C33.3388 6.88616 33.4944 6.21976 33.1489 5.02763C32.3792 2.37131 29.6568 0.0544713 27.3052 0.0544713C26.7459 0.0544713 26.6166 0.147794 26.3765 0.72454ZM20.6402 12.5504C19.5102 12.9423 17.9433 14.3124 17.3889 15.3932C17.1178 15.9219 16.9519 16.6825 16.8934 17.6646C16.8067 19.1188 16.961 19.6774 17.9592 21.5266C17.9953 21.5935 17.732 21.7034 17.3737 21.7708C15.905 22.0473 14.5905 23.841 14.1504 26.1692C13.9978 26.9759 14.0182 27.256 14.2557 27.6199C14.8023 28.4567 16.0821 28.0233 16.0821 27.0014C16.0821 26.2335 16.8468 24.4322 17.3368 24.0456C17.5995 23.8382 18.4398 23.5791 19.2986 23.441C21.203 23.1344 21.475 22.9871 21.475 22.2634C21.475 21.7971 21.3051 21.567 20.589 21.0625C18.5996 19.6613 18.2886 17.2574 19.8696 15.5018C21.3486 13.8595 23.8426 13.8342 25.3628 15.4462C26.0252 16.1483 26.29 16.8634 26.29 17.9491C26.29 19.3367 25.5777 20.4933 24.3299 21.1323C23.4955 21.5595 23.2559 22.12 23.65 22.7234C23.8586 23.0428 24.2473 23.2082 25.1586 23.3658C27.5698 23.7828 28.4342 24.4795 28.6977 26.2188C28.9685 28.0059 29.5353 28.5805 30.4403 27.9856C31.0332 27.5959 31.0574 26.8433 30.5318 25.1365C30.0576 23.5963 29.091 22.4201 27.9358 21.9774L27.082 21.6503L27.6673 20.61C28.4138 19.2828 28.5812 17.7518 28.1443 16.2443C27.7757 14.972 26.4587 13.3876 25.2524 12.7651C24.1808 12.2119 21.9203 12.1068 20.6402 12.5504Z" fill="#2D5BD0"/>
</svg>
