<svg width="62" height="38" viewBox="0 0 62 38" fill="none" xmlns="http://www.w3.org/2000/svg">
<path fill-rule="evenodd" clip-rule="evenodd" d="M9.19474 0.241199C9.05428 0.41947 6.8969 4.15706 4.40015 8.54677C1.37842 13.8598 -0.0912033 16.6726 0.00437797 16.9604C0.158667 17.4247 9.0322 22.636 9.66876 22.636C10.0249 22.636 10.6042 22.03 11.1791 21.0562C11.3977 20.6858 11.5748 20.7448 12.8773 21.6222C13.6771 22.1612 14.7472 23.1047 15.2557 23.7193L16.1797 24.8367L15.6416 25.5966C15.3406 26.0212 15.0548 26.8628 14.9937 27.5042C14.8141 29.3808 15.653 30.5085 17.6064 31.0172C17.9399 31.104 18.4312 31.5269 18.698 31.9568C19.3654 33.0321 20.657 33.8542 21.6785 33.8542C22.3265 33.8542 22.7678 34.0788 23.5579 34.8111C24.5205 35.703 26.1675 36.4287 26.608 36.1551C26.714 36.0893 26.9188 36.2575 27.0633 36.5292C27.3998 37.1608 29.0281 38 29.9177 38C30.2949 38 31.0217 37.7859 31.5324 37.524C32.2771 37.1423 32.7582 37.076 33.9624 37.1891C35.6006 37.343 36.7539 36.9484 37.3175 36.0415C37.4815 35.7773 37.7803 35.5608 37.9819 35.5603C38.6311 35.5588 39.9304 34.6041 40.4212 33.7681C40.7492 33.2089 41.1941 32.866 41.8447 32.6699C42.8733 32.3602 44.1937 31.0387 44.4332 30.0797C44.5149 29.7522 44.9463 29.2681 45.3919 29.0038C46.4821 28.3573 47.0129 27.2469 46.994 25.6525C46.9789 24.4029 47.0323 24.2924 48.3297 22.8838C49.0728 22.0768 49.7581 21.4167 49.8527 21.4167C49.9471 21.4167 50.2789 21.8829 50.5902 22.4531C51.3014 23.7556 51.8005 24.3431 52.1956 24.3431C52.487 24.3431 61.049 19.4608 61.6975 18.925C61.8644 18.7872 62.0005 18.5507 62 18.3995C61.9995 18.248 59.8853 14.448 57.3017 9.95465C53.8853 4.01293 52.4729 1.76492 52.1229 1.71175C51.6178 1.63493 42.9211 6.53702 42.4398 7.16987C42.2033 7.4808 42.0005 7.42861 40.9842 6.7943C38.7854 5.42179 37.2163 5.01769 33.5886 4.88941C30.8289 4.79211 30.07 4.84551 28.9793 5.21425C28.2615 5.4569 27.0189 5.67297 26.2184 5.69444C25.1379 5.72346 23.9996 6.02586 21.8006 6.86844C20.1713 7.49275 18.7706 8.00366 18.6879 8.00366C18.6049 8.00366 18.7645 7.63396 19.042 7.1823C19.9889 5.64225 19.953 5.6025 15.0068 2.73992C12.5095 1.29449 10.2376 0.0680505 9.95817 0.0143985C9.67871 -0.0394973 9.3352 0.0626845 9.19474 0.241199ZM13.951 4.22364C15.8214 5.29668 17.3543 6.27193 17.3577 6.39069C17.3679 6.75699 9.49312 20.4221 9.26606 20.4319C9.10279 20.439 2.50841 16.7202 2.12148 16.4029C1.97059 16.2792 10.1809 2.1417 10.3657 2.2073C10.4671 2.24315 12.0804 3.1506 13.951 4.22364ZM55.8027 10.9301C58.8837 16.289 59.7313 17.9439 59.5047 18.1575C59.3431 18.31 57.7459 19.275 55.9556 20.3024C53.3322 21.8076 52.644 22.1088 52.4108 21.8544C52.0195 21.4274 44.5336 8.33704 44.5356 8.08292C44.5373 7.84563 51.3645 3.84173 51.6275 3.92368C51.7262 3.95465 53.6051 7.10743 55.8027 10.9301ZM35.5448 6.79113C37.5812 7.05671 39.567 7.90441 41.7239 9.42837C42.5131 9.98611 43.2831 10.4424 43.4349 10.4424C43.6418 10.4424 48.4517 18.4558 48.8476 19.4603C48.8852 19.5557 48.1929 20.4187 47.3094 21.3781L45.7024 23.1228L42.0252 19.6161C37.8793 15.6627 35.6351 13.6659 34.2438 12.6926C33.4268 12.121 33.0517 12.0276 31.5753 12.0276C28.8173 12.0276 28.2986 12.4746 26.5823 16.3312C26.2041 17.1808 25.715 17.4108 24.7852 17.1764C22.9958 16.7248 23.4017 12.0071 25.4191 9.80686C26.5151 8.61139 28.9063 7.05134 30.0717 6.77186C31.159 6.51092 33.4586 6.51897 35.5448 6.79113ZM23.8056 8.78601C22.2799 10.5777 21.451 14.8782 22.2319 16.9501C22.8556 18.6051 24.4843 19.4281 26.1951 18.9533C27.3993 18.619 28.1565 17.7781 28.6635 16.2119C29.178 14.6221 29.5824 14.1607 30.7357 13.8486C32.068 13.4879 32.7395 13.7476 34.679 15.3742C38.0224 18.1778 45.0372 24.9396 45.175 25.4918C45.3781 26.3053 45.0858 27.2167 44.5246 27.5186C44.0996 27.7471 43.7661 27.5405 41.9769 25.9405C39.8792 24.0641 39.5168 23.8754 39.003 24.3919C38.4273 24.9706 38.7439 25.4874 40.7722 27.2789C41.9054 28.2797 42.8333 29.1881 42.8343 29.2976C42.8384 29.7783 42.2785 30.4651 41.591 30.8223C40.7511 31.2591 41.0131 31.4032 38.5232 29.1352C37.1016 27.8405 36.2265 27.6837 36.0836 28.6987C36.0206 29.1474 36.3663 29.6086 37.6535 30.7931L39.3043 32.3122L38.8836 32.9574C38.1469 34.0878 37.4557 34.0444 35.8985 32.7692C34.4192 31.5576 33.9095 31.4657 33.4797 32.3326L33.2084 32.8797L32.7463 32.3665C32.4923 32.0841 31.9931 31.7017 31.6369 31.5166C31.2328 31.3067 30.9269 30.894 30.823 30.4195C30.6467 29.6113 28.9869 27.7573 28.4401 27.7573C28.261 27.7573 27.9762 27.2911 27.8069 26.7209C27.4447 25.5006 25.9634 23.9717 24.9198 23.7413C24.455 23.6388 24.1542 23.392 24.0666 23.0416C23.8437 22.1485 22.6081 21.1467 21.5543 21.0045C20.4406 20.8543 19.3516 21.323 18.1498 22.4697L17.3589 23.2242L16.0877 21.9729C15.3886 21.2847 14.2571 20.3548 13.5735 19.9064L12.3302 19.0913L14.8452 14.7058L17.3601 10.3205L18.7567 9.92465C19.525 9.70712 21.1361 9.13816 22.3369 8.66041C23.5378 8.18267 24.5562 7.78467 24.5998 7.77589C24.6435 7.76711 24.2861 8.22169 23.8056 8.78601ZM21.9189 23.0157C22.2156 23.2245 22.4551 23.6359 22.4509 23.9303C22.4471 24.2322 21.59 25.5059 20.4823 26.8562C18.8101 28.8948 18.4276 29.2367 17.8892 29.173C17.5144 29.1289 17.1173 28.846 16.9123 28.477C16.6064 27.9264 16.6173 27.7486 17.0086 26.9199C17.5227 25.8308 19.9069 23.1628 20.6288 22.8687C21.3134 22.5897 21.3144 22.5899 21.9189 23.0157ZM25.469 26.3129C25.8145 26.7255 26.0971 27.2342 26.0971 27.4435C26.0971 28.1088 22.6775 32.1471 22.115 32.1461C21.3467 32.1449 20.0323 31.2418 20.0323 30.7155C20.0323 30.4607 20.8782 29.1986 21.9124 27.9112C24.0132 25.2955 24.4523 25.0982 25.469 26.3129ZM28.5495 30.1124C29.3027 30.9918 29.2384 31.3159 28.0068 32.8462C27.1584 33.9003 26.6366 34.3419 26.24 34.3419C25.6095 34.3419 24.397 33.4854 24.4026 33.0438C24.4045 32.886 25.0637 31.9593 25.8671 30.9848C27.4115 29.1116 27.6308 29.0401 28.5495 30.1124ZM31.3237 33.4774C31.6512 33.8066 31.9193 34.1978 31.9193 34.3468C31.9193 35.4069 30.3856 36.4365 29.3796 36.0519C29.0351 35.9203 28.6911 35.6498 28.6152 35.451C28.4735 35.0801 30.0899 32.8787 30.504 32.8787C30.6275 32.8787 30.9962 33.1482 31.3237 33.4774ZM35.0327 34.387C35.4551 34.7472 35.8008 35.0921 35.8008 35.1533C35.8008 35.3669 34.5429 35.5798 34.1058 35.4403C33.7887 35.3391 33.6412 35.0023 33.5806 34.24C33.4872 33.0665 33.4833 33.066 35.0327 34.387Z" fill="#2D5BD0"/>
</svg>
