<svg width="32" height="23" viewBox="0 0 32 23" fill="none" xmlns="http://www.w3.org/2000/svg">
<path d="M1.896 22.08L1.176 18.264C2.424 17.928 3.576 17.304 4.632 16.392C5.736 15.528 6.288 14.064 6.288 12H0.0960001V0.911999H11.256V10.488C11.208 14.04 10.416 16.8 8.88 18.768C7.344 20.736 5.016 21.84 1.896 22.08ZM21.9323 22.08L21.2123 18.264C22.4603 17.928 23.6123 17.304 24.6683 16.392C25.7723 15.528 26.3243 14.064 26.3243 12H20.1323V0.911999H31.2923V10.488C31.2443 14.04 30.4523 16.8 28.9163 18.768C27.3803 20.736 25.0523 21.84 21.9323 22.08Z" fill="white" fill-opacity="0.12"/>
</svg>
